<svg xmlns="http://www.w3.org/2000/svg" viewBox="0 0 1200 300" width="100%" height="100%">
  <defs>
    <linearGradient id="bg-gradient" x1="0%" y1="0%" x2="100%" y2="100%">
      <stop offset="0%" stop-color="#0f172a"/>
      <stop offset="50%" stop-color="#1e1b4b"/>
      <stop offset="100%" stop-color="#311042"/>
    </linearGradient>

    <linearGradient id="text-gradient" x1="0%" y1="0%" x2="100%" y2="0%">
      <stop offset="0%" stop-color="#38bdf8"/>
      <stop offset="50%" stop-color="#818cf8"/>
      <stop offset="100%" stop-color="#c084fc"/>
    </linearGradient>

    <linearGradient id="pulse-grad" x1="0%" y1="0%" x2="100%" y2="0%">
      <stop offset="0%" stop-color="#38bdf8" stop-opacity="0.8"/>
      <stop offset="100%" stop-color="#c084fc" stop-opacity="0"/>
    </linearGradient>

    <style>
      .title {
        font-family: system-ui, -apple-system, 'Segoe UI', Roboto, Helvetica, Arial, sans-serif;
        font-weight: 800;
        font-size: 46px;
        fill: url(#text-gradient);
      }

      .subtitle {
        font-family: system-ui, -apple-system, 'Segoe UI', Roboto, Helvetica, Arial, sans-serif;
        font-weight: 500;
        font-size: 20px;
        fill: #94a3b8;
        letter-spacing: 0.5px;
      }

      .pill-text {
        font-family: system-ui, -apple-system, 'Segoe UI', Roboto, Helvetica, Arial, sans-serif;
        font-size: 13px;
        font-weight: 600;
        fill: #e2e8f0;
      }
    </style>
  </defs>

  <!-- Dark Rich Background -->
  <rect width="1200" height="300" fill="url(#bg-gradient)" rx="16"/>

  <!-- Background Wave Pattern -->
  <path fill="#1e293b" opacity="0.4" d="M0,150 Q300,90 600,150 T1200,150 L1200,300 L0,300 Z" />
  
  <!-- Network Lines in Background -->
  <g opacity="0.25">
    <path stroke="url(#pulse-grad)" stroke-width="2" fill="none" stroke-dasharray="10 15" d="M100,50 Q300,200 600,80 T1100,220" />
    <path stroke="url(#pulse-grad)" stroke-width="1.5" fill="none" stroke-dasharray="8 12" d="M50,220 Q400,30 800,250 T1150,80" />
  </g>

  <!-- Background Nodes -->
  <g opacity="0.6">
    <circle cx="120" cy="80" r="4" fill="#38bdf8"/>
    <circle cx="1080" cy="70" r="5" fill="#c084fc"/>
    <circle cx="1020" cy="240" r="3" fill="#818cf8"/>
    <line x1="120" y1="80" x2="200" y2="130" stroke="#38bdf8" stroke-width="1" opacity="0.2"/>
    <circle cx="90" cy="220" r="6" fill="#818cf8"/>
    <circle cx="1130" cy="180" r="4" fill="#38bdf8"/>
  </g>

  <!-- Feature Cards in Background -->
  <g transform="translate(950, 45)" opacity="0.85">
    <rect width="190" height="42" rx="21" fill="#1e293b" stroke="#334155" stroke-width="1.5"/>
    <circle cx="24" cy="21" r="10" fill="#38bdf8" opacity="0.2"/>
    <circle cx="24" cy="21" r="5" fill="#38bdf8"/>
    <text x="44" y="26" class="pill-text">Intent Aggregation</text>
  </g>

  <g transform="translate(970, 105)" opacity="0.85">
    <rect width="170" height="42" rx="21" fill="#1e293b" stroke="#334155" stroke-width="1.5"/>
    <circle cx="24" cy="21" r="10" fill="#818cf8" opacity="0.2"/>
    <circle cx="24" cy="21" r="5" fill="#818cf8"/>
    <text x="44" y="26" class="pill-text">Lead Scoring AI</text>
  </g>

  <g transform="translate(930, 165)" opacity="0.85">
    <rect width="210" height="42" rx="21" fill="#1e293b" stroke="#334155" stroke-width="1.5"/>
    <circle cx="24" cy="21" r="10" fill="#c084fc" opacity="0.2"/>
    <circle cx="24" cy="21" r="5" fill="#c084fc"/>
    <text x="44" y="26" class="pill-text">ABM &amp; Signal Capture</text>
  </g>

  <!-- FOREGROUND CONTENT - TITLE AND SUBTITLE ALWAYS CRISP AND CLEAR -->
  <g transform="translate(70, 110)">
    <!-- Radar/Signal Icon -->
    <g transform="translate(0, -38)">
      <circle cx="28" cy="28" r="26" fill="#1e1b4b" stroke="#818cf8" stroke-width="2"/>
      <circle cx="28" cy="28" r="18" fill="none" stroke="#38bdf8" stroke-width="1.5" stroke-dasharray="4 2"/>
      <circle cx="28" cy="28" r="10" fill="none" stroke="#c084fc" stroke-width="1.5"/>
      <circle cx="28" cy="28" r="4" fill="#38bdf8"/>
    </g>

    <!-- Main Title -->
    <text x="72" y="0" class="title">Awesome Buyer Intent Data Platform</text>
    
    <!-- Subtitle -->
    <text x="72" y="42" class="subtitle">Curated B2B Buyer Intent Intelligence, ABM Platforms &amp; Open-Source Tools 🎯</text>
    
    <!-- Dynamic Pill Badges under Subtitle -->
    <g transform="translate(72, 70)">
      <rect width="130" height="28" rx="14" fill="#0f172a" stroke="#38bdf8" stroke-width="1"/>
      <text x="65" y="18" text-anchor="middle" class="pill-text" fill="#38bdf8">⚡ Live Signals</text>

      <rect x="142" width="145" height="28" rx="14" fill="#0f172a" stroke="#818cf8" stroke-width="1"/>
      <text x="214" y="18" text-anchor="middle" class="pill-text" fill="#818cf8">📊 Open-Source CDP</text>

      <rect x="299" width="140" height="28" rx="14" fill="#0f172a" stroke="#c084fc" stroke-width="1"/>
      <text x="369" y="18" text-anchor="middle" class="pill-text" fill="#c084fc">🚀 B2B Revenue AI</text>
    </g>
  </g>
</svg>
